<?xml version="1.0" encoding="utf-8"?>
<!-- Generator: Adobe Illustrator 25.2.1, SVG Export Plug-In . SVG Version: 6.00 Build 0)  -->
<svg version="1.1" id="Calque_1" xmlns="http://www.w3.org/2000/svg" xmlns:xlink="http://www.w3.org/1999/xlink" x="0px" y="0px"
	 viewBox="0 0 198.43 28.35" style="enable-background:new 0 0 198.43 28.35;" xml:space="preserve">
<style type="text/css">
	.st0{fill:#FFFFFF;}
</style>
<g>
	<g>
		<path class="st0" d="M99.76,7.74c0-0.2-0.06-0.39-0.15-0.55c-0.34-0.6-0.79-1.27-1.39-1.92c-0.67-0.72-1.27-1.14-1.54-1.32
			c0,0-0.54-0.36-1.12-0.61c-1.67-0.73-4.36-1.02-6,0.28c-2.59,2.06-1.96,7.65-1.84,8.67c1.11,9.81,10.76,16.02,11.8,14.91
			c0.34-0.37-0.53-1.22-0.33-2.98c0.28-2.46,2.27-3.21,6-7.15c2.71-2.86,3.33-4.23,3.54-4.73c0.49-1.16,1.46-3.43,0.85-6.08
			c-0.68-2.94-2.87-4.37-3.49-4.73c-3.9-2.27-8.94,1.51-9.33,2.18c-0.18,0.31,0.47,0.58,0.77,0.89c0.35,0.35,0.49,0.47,0.81,0.65
			c0.12,0.07,0.74-0.78,0.95-0.98c0.94-0.9,1.69-1.41,2.97-1.57c1.36-0.17,2.46,0.19,3.73,1.09c0.24,0.17,1.39,1.03,1.84,2.53
			c1.02,3.38-2.15,7.73-4.63,9.79c-0.82,0.68-2.57,2.1-5.15,2.31c-0.91,0.07-3.17,0.22-5.38-1.52c-0.52-0.4-2.7-2.22-3.35-5.63
			C89.1,10.02,88.71,8,89.62,6.66c1.59-2.37,6.54-1.79,8.07,0.28c0.21,0.28,1.07,1.44,1.67,1.29C99.6,8.17,99.76,8.08,99.76,7.74z"
			/>
		<g>
			<path class="st0" d="M96.78,9.35c0.25,0,0.5,0,0.74,0c0.02,0.01,0.04,0.03,0.06,0.03c1.42,0.23,2.54,1.41,2.89,3.05
				c0.04,0.18,0.07,0.37,0.1,0.56c0,0.3,0,0.59,0,0.89c-0.01,0.06-0.03,0.13-0.03,0.19c-0.3,2.23-2.05,3.75-3.92,3.41
				c-1.83-0.33-3.1-2.36-2.88-4.55c0.17-1.67,1.17-3.02,2.54-3.45C96.44,9.43,96.61,9.4,96.78,9.35z M96.52,10.14
				c-0.31,0.12-0.67,0.13-0.8,0.6c-0.03,0.11-0.1,0.13-0.19,0.12c-0.05-0.01-0.11,0.04-0.16,0.07c-0.06,0.04-0.11,0.08-0.16,0.12
				c-0.06,0.04-0.13,0.07-0.18,0.13c-0.35,0.45-0.56,0.98-0.67,1.57c-0.01,0.05,0,0.11,0.02,0.16c0.03,0.09,0.08,0.18,0.11,0.27
				c0.04,0.1,0.07,0.21,0.11,0.31c0.07,0.19,0.12,0.39,0.22,0.56c0.1,0.17,0.26,0.3,0.38,0.45c0.03,0.04,0.06,0.11,0.07,0.16
				c0.01,0.06,0.01,0.16-0.02,0.19c-0.11,0.12-0.09,0.24-0.05,0.38c0.02,0.09,0.03,0.18-0.09,0.22c-0.12,0.04-0.09,0.17-0.05,0.27
				c0.03,0.07,0.08,0.13,0.13,0.18c0.7,0.76,1.52,1.07,2.46,0.88c1.59-0.31,2.65-2.23,2.28-4.1c-0.06-0.28-0.09-0.3-0.31-0.21
				c-0.19,0.08-0.38,0.09-0.54-0.1c-0.01-0.01-0.03-0.01-0.05-0.02c0.03,0.22,0.15,0.35,0.26,0.31c0.06-0.02,0.17-0.04,0.19,0
				c0.04,0.06,0.05,0.2,0.02,0.25c-0.12,0.2-0.26,0.38-0.4,0.56c-0.02,0.02-0.11-0.01-0.13-0.05c-0.09-0.15-0.15-0.31-0.24-0.46
				c-0.07-0.12-0.17-0.23-0.26-0.35c-0.01,0.01-0.02,0.02-0.03,0.03c0.1,0.21,0.19,0.43,0.3,0.62c0.08,0.13,0.18,0.26,0.3,0.32
				c0.06,0.03,0.18-0.07,0.27-0.11c0,0,0.01,0,0.05,0.01c-0.01,0.07-0.01,0.16-0.04,0.22c-0.13,0.27-0.25,0.55-0.39,0.81
				c-0.09,0.16-0.12,0.31-0.08,0.49c0.02,0.1,0.01,0.25-0.04,0.33c-0.12,0.21-0.29,0.39-0.42,0.6c-0.14,0.23-0.31,0.33-0.54,0.35
				c-0.1,0.01-0.16-0.01-0.2-0.13c-0.07-0.2-0.17-0.4-0.24-0.6c-0.02-0.06,0-0.15,0.02-0.21c0.09-0.22,0.07-0.39-0.08-0.55
				c-0.08-0.08-0.1-0.16-0.07-0.28c0.03-0.11,0.03-0.22-0.12-0.2c-0.03,0-0.08-0.01-0.09-0.04c-0.07-0.15-0.15-0.11-0.25-0.05
				c-0.34,0.18-0.78-0.09-0.84-0.53c-0.02-0.16,0.03-0.34,0.01-0.5c-0.03-0.21,0.04-0.35,0.15-0.47c0.14-0.15,0.31-0.24,0.41-0.44
				c0.02-0.04,0.08-0.06,0.13-0.07c0.19-0.04,0.39-0.06,0.58-0.09c0.08-0.01,0.13,0.03,0.15,0.13c0.02,0.11,0.26,0.31,0.35,0.29
				c0.02,0,0.06-0.03,0.06-0.05c0.04-0.13,0.09-0.12,0.19-0.07c0.06,0.03,0.14,0.04,0.21,0.04c0.23,0.02,0.3-0.07,0.24-0.35
				c-0.06,0-0.12,0-0.18,0.01c-0.08,0.01-0.17,0.02-0.21-0.09c-0.07-0.2-0.13-0.12-0.21,0.03c-0.06-0.09-0.1-0.17-0.16-0.23
				c-0.06-0.06-0.13-0.11-0.22-0.18c0.04,0.18,0.26,0.21,0.15,0.42c-0.09-0.22-0.26-0.45-0.45-0.33c-0.09,0.06-0.16,0.15-0.24,0.22
				c-0.07,0.06-0.13,0.13-0.21,0.16c-0.11,0.04-0.17-0.06-0.15-0.19c0.01-0.07,0.03-0.14,0.04-0.21c0.34,0,0.37-0.02,0.28-0.24
				c0.15-0.17,0.4-0.21,0.47-0.46c-0.07-0.06-0.12-0.09-0.14-0.14c-0.01-0.02,0.01-0.09,0.04-0.12c0.08-0.1,0.17-0.19,0.25-0.29
				c0.07-0.09,0.38-0.09,0.43,0c-0.01,0.04-0.02,0.07-0.04,0.11c0.01,0.01,0.02,0.03,0.04,0.04c0.1-0.11,0.2-0.22,0.31-0.35
				c-0.04-0.03-0.08-0.07-0.12-0.08c-0.21-0.06-0.41-0.12-0.62-0.17c-0.15-0.04-0.25,0.02-0.37,0.13c-0.12,0.12-0.29,0.18-0.45,0.24
				c-0.11,0.05-0.24,0.05-0.35,0.09c-0.07,0.02-0.13,0.08-0.22,0.14C96.14,10.33,96.42,10.34,96.52,10.14z M98.55,11.81
				c0-0.02,0-0.04,0.01-0.06c-0.04-0.03-0.09-0.05-0.13-0.09c-0.04-0.04-0.07-0.09-0.1-0.13c-0.03,0.03-0.06,0.07-0.07,0.07
				c-0.07-0.01-0.14-0.03-0.14-0.02c-0.03,0.07-0.04,0.15-0.05,0.23c0.05,0.01,0.09,0.02,0.14,0.02c0.07,0,0.14-0.01,0.21-0.02
				C98.46,11.82,98.51,11.82,98.55,11.81z M97.39,11.06c-0.01,0.01-0.02,0.02-0.03,0.03c0.03,0.03,0.05,0.08,0.08,0.1
				c0.17,0.06,0.27-0.03,0.35-0.3c-0.23,0.06-0.09-0.16-0.14-0.3c-0.05,0.21-0.08,0.36-0.12,0.53
				C97.49,11.09,97.44,11.08,97.39,11.06z"/>
			<path class="st0" d="M96.94,10.95c0.03,0.11,0.07,0.22,0.11,0.35c-0.05,0.02-0.12,0.05-0.2,0.08c0.02-0.16,0.04-0.3,0.06-0.44
				C96.91,10.94,96.92,10.95,96.94,10.95z"/>
		</g>
	</g>
	<g>
		<path class="st0" d="M4,26.86c-1.05-0.43-1.9-1.07-2.53-1.92c-0.63-0.85-0.96-1.87-1-3.06H5.2c0.07,0.67,0.3,1.19,0.7,1.54
			c0.4,0.35,0.92,0.53,1.56,0.53c0.66,0,1.18-0.15,1.55-0.45c0.38-0.3,0.57-0.72,0.57-1.26c0-0.45-0.15-0.82-0.45-1.12
			c-0.3-0.29-0.67-0.54-1.11-0.73C7.57,20.21,6.94,20,6.13,19.75C4.96,19.39,4,19.03,3.25,18.66c-0.74-0.36-1.38-0.9-1.92-1.61
			c-0.54-0.71-0.8-1.63-0.8-2.77c0-1.69,0.61-3.02,1.84-3.98s2.83-1.44,4.8-1.44c2.01,0,3.62,0.48,4.85,1.44s1.88,2.29,1.97,4h-4.8
			c-0.04-0.59-0.25-1.05-0.65-1.39c-0.4-0.34-0.91-0.51-1.53-0.51c-0.54,0-0.97,0.14-1.3,0.43c-0.33,0.28-0.49,0.7-0.49,1.23
			c0,0.59,0.28,1.05,0.83,1.37c0.55,0.33,1.42,0.68,2.59,1.06c1.18,0.4,2.13,0.78,2.87,1.14c0.73,0.36,1.37,0.89,1.91,1.58
			c0.54,0.69,0.8,1.58,0.8,2.67c0,1.04-0.26,1.98-0.79,2.83c-0.53,0.85-1.29,1.52-2.3,2.02c-1,0.5-2.19,0.75-3.55,0.75
			C6.25,27.5,5.06,27.29,4,26.86z"/>
		<path class="st0" d="M19.7,26.62c-1.13-0.6-2.02-1.47-2.67-2.59c-0.65-1.12-0.97-2.44-0.97-3.94c0-1.49,0.33-2.8,0.99-3.93
			c0.66-1.13,1.55-2,2.7-2.61c1.14-0.61,2.42-0.91,3.84-0.91c1.42,0,2.7,0.3,3.84,0.91c1.14,0.61,2.04,1.47,2.7,2.61
			c0.66,1.13,0.99,2.44,0.99,3.93c0,1.49-0.33,2.8-1,3.93c-0.66,1.13-1.57,2-2.72,2.61c-1.15,0.61-2.43,0.91-3.85,0.91
			S20.83,27.23,19.7,26.62z M25.69,22.76c0.6-0.62,0.89-1.51,0.89-2.67s-0.29-2.05-0.87-2.67c-0.58-0.62-1.29-0.93-2.14-0.93
			c-0.87,0-1.58,0.31-2.15,0.92c-0.57,0.61-0.86,1.51-0.86,2.68c0,1.16,0.28,2.05,0.84,2.67c0.56,0.62,1.27,0.93,2.11,0.93
			S25.09,23.38,25.69,22.76z"/>
		<path class="st0" d="M33.49,16.15c0.61-1.12,1.47-1.99,2.57-2.59c1.1-0.61,2.35-0.91,3.77-0.91c1.81,0,3.33,0.47,4.55,1.43
			c1.22,0.95,2.02,2.29,2.4,4.02h-4.72c-0.4-1.11-1.16-1.66-2.31-1.66c-0.81,0-1.46,0.32-1.95,0.95c-0.48,0.63-0.73,1.53-0.73,2.71
			s0.24,2.08,0.73,2.71s1.13,0.95,1.95,0.95c1.14,0,1.91-0.55,2.31-1.66h4.72c-0.38,1.69-1.18,3.02-2.41,3.99
			c-1.23,0.97-2.74,1.45-4.54,1.45c-1.42,0-2.68-0.3-3.77-0.91c-1.1-0.6-1.95-1.47-2.57-2.59c-0.61-1.12-0.92-2.44-0.92-3.94
			C32.57,18.59,32.88,17.27,33.49,16.15z"/>
		<path class="st0" d="M49.46,10.67c-0.49-0.46-0.74-1.02-0.74-1.7c0-0.69,0.25-1.27,0.74-1.72c0.49-0.46,1.13-0.69,1.91-0.69
			c0.76,0,1.39,0.23,1.88,0.69c0.49,0.46,0.74,1.03,0.74,1.72c0,0.68-0.25,1.24-0.74,1.7c-0.49,0.46-1.12,0.69-1.88,0.69
			C50.59,11.35,49.96,11.12,49.46,10.67z M53.57,12.86v14.47h-4.43V12.86H53.57z"/>
		<path class="st0" d="M56.75,16.15c0.56-1.12,1.33-1.99,2.3-2.59c0.97-0.61,2.05-0.91,3.24-0.91c1.02,0,1.91,0.21,2.68,0.62
			c0.77,0.42,1.36,0.96,1.77,1.63v-2.05h4.43v14.47h-4.43v-2.05c-0.43,0.68-1.03,1.22-1.8,1.63c-0.77,0.42-1.66,0.62-2.68,0.62
			c-1.18,0-2.25-0.31-3.22-0.92c-0.97-0.61-1.73-1.49-2.3-2.62c-0.56-1.13-0.84-2.44-0.84-3.93C55.91,18.58,56.19,17.27,56.75,16.15
			z M65.82,17.47c-0.61-0.64-1.36-0.96-2.24-0.96c-0.88,0-1.63,0.31-2.24,0.95c-0.61,0.63-0.92,1.5-0.92,2.61
			c0,1.11,0.31,1.98,0.92,2.63c0.61,0.65,1.36,0.97,2.24,0.97c0.88,0,1.63-0.32,2.24-0.96c0.61-0.64,0.92-1.51,0.92-2.62
			C66.74,18.98,66.44,18.11,65.82,17.47z"/>
		<path class="st0" d="M78.82,8.14v19.18h-4.43V8.14H78.82z"/>
		<path class="st0" d="M128.16,17.87c-0.49,0.87-1.23,1.58-2.23,2.11c-1,0.54-2.25,0.8-3.73,0.8h-2.75v6.53h-4.43V9.12h7.18
			c1.45,0,2.68,0.25,3.68,0.75c1,0.5,1.75,1.19,2.26,2.07c0.5,0.88,0.75,1.89,0.75,3.03C128.88,16.04,128.64,17,128.16,17.87z
			 M123.75,16.67c0.42-0.4,0.62-0.96,0.62-1.69c0-0.73-0.21-1.29-0.62-1.69c-0.42-0.4-1.05-0.59-1.89-0.59h-2.41v4.56h2.41
			C122.7,17.26,123.33,17.06,123.75,16.67z"/>
		<path class="st0" d="M135.62,8.14v19.18h-4.43V8.14H135.62z"/>
		<path class="st0" d="M138.8,16.15c0.56-1.12,1.33-1.99,2.3-2.59c0.97-0.61,2.05-0.91,3.24-0.91c1.02,0,1.91,0.21,2.68,0.62
			c0.77,0.42,1.36,0.96,1.77,1.63v-2.05h4.43v14.47h-4.43v-2.05c-0.43,0.68-1.03,1.22-1.8,1.63c-0.77,0.42-1.66,0.62-2.68,0.62
			c-1.18,0-2.25-0.31-3.22-0.92c-0.97-0.61-1.73-1.49-2.3-2.62c-0.56-1.13-0.84-2.44-0.84-3.93
			C137.96,18.58,138.24,17.27,138.8,16.15z M147.87,17.47c-0.61-0.64-1.36-0.96-2.24-0.96c-0.88,0-1.63,0.31-2.24,0.95
			c-0.61,0.63-0.92,1.5-0.92,2.61c0,1.11,0.31,1.98,0.92,2.63c0.61,0.65,1.36,0.97,2.24,0.97c0.88,0,1.63-0.32,2.24-0.96
			s0.92-1.51,0.92-2.62C148.79,18.98,148.49,18.11,147.87,17.47z"/>
		<path class="st0" d="M169.31,14.35c1.01,1.1,1.52,2.61,1.52,4.52v8.45h-4.41v-7.85c0-0.97-0.25-1.72-0.75-2.26
			c-0.5-0.54-1.18-0.8-2.02-0.8c-0.85,0-1.52,0.27-2.02,0.8c-0.5,0.54-0.75,1.29-0.75,2.26v7.85h-4.43V12.86h4.43v1.92
			c0.45-0.64,1.05-1.15,1.81-1.52c0.76-0.37,1.62-0.56,2.57-0.56C166.95,12.7,168.3,13.25,169.31,14.35z"/>
		<path class="st0" d="M187.47,21.15h-10.03c0.07,0.9,0.36,1.59,0.87,2.06c0.51,0.48,1.14,0.71,1.88,0.71c1.11,0,1.87-0.47,2.31-1.4
			h4.72c-0.24,0.95-0.68,1.81-1.31,2.57c-0.63,0.76-1.42,1.36-2.37,1.79c-0.95,0.43-2.01,0.65-3.19,0.65c-1.42,0-2.68-0.3-3.78-0.91
			c-1.11-0.6-1.97-1.47-2.59-2.59c-0.62-1.12-0.93-2.44-0.93-3.94c0-1.5,0.31-2.82,0.92-3.94c0.61-1.12,1.47-1.99,2.58-2.59
			c1.11-0.61,2.38-0.91,3.81-0.91c1.4,0,2.65,0.29,3.73,0.88c1.09,0.59,1.94,1.43,2.55,2.51s0.92,2.36,0.92,3.81
			C187.55,20.27,187.52,20.7,187.47,21.15z M183.01,18.69c0-0.76-0.26-1.37-0.78-1.81c-0.52-0.45-1.17-0.68-1.94-0.68
			c-0.74,0-1.37,0.22-1.88,0.65c-0.51,0.43-0.82,1.04-0.95,1.84H183.01z"/>
		<path class="st0" d="M197.95,23.56v3.76h-2.26c-1.61,0-2.86-0.39-3.76-1.18c-0.9-0.79-1.35-2.07-1.35-3.85v-5.76h-1.76v-3.68h1.76
			V9.33h4.43v3.53h2.9v3.68h-2.9v5.81c0,0.43,0.1,0.74,0.31,0.93c0.21,0.19,0.55,0.28,1.04,0.28H197.95z"/>
	</g>
</g>
</svg>
